<mxfile host="app.diagrams.net" modified="2023-09-28T08:29:08.603Z" agent="Mozilla/5.0 (Macintosh; Intel Mac OS X 10_15_7) AppleWebKit/537.36 (KHTML, like Gecko) Chrome/112.0.0.0 Safari/537.36" etag="pwiMIlB5lT7ohyQEjYg7" version="21.6.5" type="device">
  <diagram name="Page-1" id="Xhkv7z1-xJZa4PDP-x6C">
    <mxGraphModel dx="5471" dy="2547" grid="1" gridSize="10" guides="1" tooltips="1" connect="1" arrows="1" fold="1" page="1" pageScale="1" pageWidth="850" pageHeight="1100" math="0" shadow="0">
      <root>
        <mxCell id="0" />
        <mxCell id="1" parent="0" />
        <mxCell id="LmSZ4bQ_DX0vWLkFpmX3-75" style="edgeStyle=orthogonalEdgeStyle;rounded=0;orthogonalLoop=1;jettySize=auto;html=1;entryX=0;entryY=0.5;entryDx=0;entryDy=0;" edge="1" parent="1" source="LmSZ4bQ_DX0vWLkFpmX3-1" target="LmSZ4bQ_DX0vWLkFpmX3-74">
          <mxGeometry relative="1" as="geometry" />
        </mxCell>
        <mxCell id="LmSZ4bQ_DX0vWLkFpmX3-1" value="Job applicant" style="shape=umlActor;verticalLabelPosition=bottom;verticalAlign=top;html=1;outlineConnect=0;" vertex="1" parent="1">
          <mxGeometry x="-900" y="265" width="30" height="60" as="geometry" />
        </mxCell>
        <mxCell id="LmSZ4bQ_DX0vWLkFpmX3-27" value="" style="group" vertex="1" connectable="0" parent="1">
          <mxGeometry x="-830" y="620" width="360" height="190" as="geometry" />
        </mxCell>
        <mxCell id="LmSZ4bQ_DX0vWLkFpmX3-25" value="" style="rounded=1;whiteSpace=wrap;html=1;" vertex="1" parent="LmSZ4bQ_DX0vWLkFpmX3-27">
          <mxGeometry width="360" height="190" as="geometry" />
        </mxCell>
        <mxCell id="LmSZ4bQ_DX0vWLkFpmX3-17" value="Summary" style="whiteSpace=wrap;html=1;aspect=fixed;" vertex="1" parent="LmSZ4bQ_DX0vWLkFpmX3-27">
          <mxGeometry x="99.57446808510639" y="30.400000000000002" width="60.480000000000004" height="60.480000000000004" as="geometry" />
        </mxCell>
        <mxCell id="LmSZ4bQ_DX0vWLkFpmX3-18" value="Filled up form" style="whiteSpace=wrap;html=1;aspect=fixed;" vertex="1" parent="LmSZ4bQ_DX0vWLkFpmX3-27">
          <mxGeometry x="183.82978723404256" y="30.400000000000002" width="60.480000000000004" height="60.480000000000004" as="geometry" />
        </mxCell>
        <mxCell id="LmSZ4bQ_DX0vWLkFpmX3-19" value="Cover letter" style="whiteSpace=wrap;html=1;aspect=fixed;" vertex="1" parent="LmSZ4bQ_DX0vWLkFpmX3-27">
          <mxGeometry x="268.0851063829788" y="30.400000000000002" width="60.480000000000004" height="60.480000000000004" as="geometry" />
        </mxCell>
        <mxCell id="LmSZ4bQ_DX0vWLkFpmX3-20" value="Custom replies" style="whiteSpace=wrap;html=1;aspect=fixed;" vertex="1" parent="LmSZ4bQ_DX0vWLkFpmX3-27">
          <mxGeometry x="99.57446808510639" y="106.39999999999999" width="60.480000000000004" height="60.480000000000004" as="geometry" />
        </mxCell>
        <mxCell id="LmSZ4bQ_DX0vWLkFpmX3-26" value="Outputs" style="text;html=1;align=center;verticalAlign=middle;resizable=0;points=[];autosize=1;strokeColor=none;fillColor=none;" vertex="1" parent="LmSZ4bQ_DX0vWLkFpmX3-27">
          <mxGeometry x="22.97872340425532" y="15.200000000000001" width="70" height="30" as="geometry" />
        </mxCell>
        <mxCell id="LmSZ4bQ_DX0vWLkFpmX3-29" value="" style="group" vertex="1" connectable="0" parent="1">
          <mxGeometry x="-870" y="-150" width="380" height="270" as="geometry" />
        </mxCell>
        <mxCell id="LmSZ4bQ_DX0vWLkFpmX3-30" value="" style="rounded=1;whiteSpace=wrap;html=1;" vertex="1" parent="LmSZ4bQ_DX0vWLkFpmX3-29">
          <mxGeometry width="380" height="270" as="geometry" />
        </mxCell>
        <mxCell id="LmSZ4bQ_DX0vWLkFpmX3-31" value="Info store objects" style="whiteSpace=wrap;html=1;aspect=fixed;" vertex="1" parent="LmSZ4bQ_DX0vWLkFpmX3-29">
          <mxGeometry x="105.1063829787234" y="43.2" width="64.68085106382978" height="64.68085106382978" as="geometry" />
        </mxCell>
        <mxCell id="LmSZ4bQ_DX0vWLkFpmX3-32" value="Output type" style="whiteSpace=wrap;html=1;aspect=fixed;" vertex="1" parent="LmSZ4bQ_DX0vWLkFpmX3-29">
          <mxGeometry x="194.04255319148936" y="43.2" width="64.68085106382978" height="64.68085106382978" as="geometry" />
        </mxCell>
        <mxCell id="LmSZ4bQ_DX0vWLkFpmX3-33" value="URL" style="whiteSpace=wrap;html=1;aspect=fixed;" vertex="1" parent="LmSZ4bQ_DX0vWLkFpmX3-29">
          <mxGeometry x="282.97872340425533" y="43.2" width="64.68085106382978" height="64.68085106382978" as="geometry" />
        </mxCell>
        <mxCell id="LmSZ4bQ_DX0vWLkFpmX3-34" value="Custom output template" style="whiteSpace=wrap;html=1;aspect=fixed;" vertex="1" parent="LmSZ4bQ_DX0vWLkFpmX3-29">
          <mxGeometry x="105.1063829787234" y="151.20000000000002" width="64.68085106382978" height="64.68085106382978" as="geometry" />
        </mxCell>
        <mxCell id="LmSZ4bQ_DX0vWLkFpmX3-35" value="Job description" style="whiteSpace=wrap;html=1;aspect=fixed;" vertex="1" parent="LmSZ4bQ_DX0vWLkFpmX3-29">
          <mxGeometry x="194.04255319148936" y="151.20000000000002" width="64.68085106382978" height="64.68085106382978" as="geometry" />
        </mxCell>
        <mxCell id="LmSZ4bQ_DX0vWLkFpmX3-36" value="Inputs" style="text;html=1;align=center;verticalAlign=middle;resizable=0;points=[];autosize=1;strokeColor=none;fillColor=none;" vertex="1" parent="LmSZ4bQ_DX0vWLkFpmX3-29">
          <mxGeometry x="28.29787234042553" y="21.6" width="60" height="30" as="geometry" />
        </mxCell>
        <mxCell id="LmSZ4bQ_DX0vWLkFpmX3-77" style="edgeStyle=orthogonalEdgeStyle;rounded=0;orthogonalLoop=1;jettySize=auto;html=1;entryX=0.025;entryY=0.588;entryDx=0;entryDy=0;entryPerimeter=0;exitX=1;exitY=0.5;exitDx=0;exitDy=0;" edge="1" parent="1" source="LmSZ4bQ_DX0vWLkFpmX3-74" target="LmSZ4bQ_DX0vWLkFpmX3-79">
          <mxGeometry relative="1" as="geometry">
            <mxPoint x="-410" y="295" as="targetPoint" />
          </mxGeometry>
        </mxCell>
        <mxCell id="LmSZ4bQ_DX0vWLkFpmX3-78" value="Fed to" style="edgeLabel;html=1;align=center;verticalAlign=middle;resizable=0;points=[];" vertex="1" connectable="0" parent="LmSZ4bQ_DX0vWLkFpmX3-77">
          <mxGeometry x="-0.1203" y="6" relative="1" as="geometry">
            <mxPoint y="-5" as="offset" />
          </mxGeometry>
        </mxCell>
        <mxCell id="LmSZ4bQ_DX0vWLkFpmX3-74" value="&lt;ul&gt;&lt;li&gt;&lt;span style=&quot;background-color: initial;&quot;&gt;Save info&lt;/span&gt;&lt;/li&gt;&lt;li&gt;&lt;span style=&quot;background-color: initial;&quot;&gt;Get info&lt;/span&gt;&lt;/li&gt;&lt;li&gt;&lt;span style=&quot;background-color: initial;&quot;&gt;Delete info&lt;/span&gt;&lt;/li&gt;&lt;li&gt;&lt;span style=&quot;background-color: initial;&quot;&gt;Get Answer&lt;/span&gt;&lt;br&gt;&lt;/li&gt;&lt;li&gt;Answer a counter question&lt;/li&gt;&lt;li&gt;Like a reply&lt;/li&gt;&lt;/ul&gt;" style="text;strokeColor=none;fillColor=none;html=1;whiteSpace=wrap;verticalAlign=middle;overflow=hidden;" vertex="1" parent="1">
          <mxGeometry x="-720" y="250" width="190" height="110" as="geometry" />
        </mxCell>
        <mxCell id="LmSZ4bQ_DX0vWLkFpmX3-76" value="Request" style="text;html=1;align=center;verticalAlign=middle;resizable=0;points=[];autosize=1;strokeColor=none;fillColor=none;" vertex="1" parent="1">
          <mxGeometry x="-825" y="268" width="70" height="30" as="geometry" />
        </mxCell>
        <mxCell id="LmSZ4bQ_DX0vWLkFpmX3-92" style="edgeStyle=orthogonalEdgeStyle;rounded=0;orthogonalLoop=1;jettySize=auto;html=1;entryX=0.5;entryY=0;entryDx=0;entryDy=0;" edge="1" parent="1" source="LmSZ4bQ_DX0vWLkFpmX3-79" target="LmSZ4bQ_DX0vWLkFpmX3-88">
          <mxGeometry relative="1" as="geometry" />
        </mxCell>
        <mxCell id="LmSZ4bQ_DX0vWLkFpmX3-79" value="Query analyser" style="whiteSpace=wrap;html=1;aspect=fixed;" vertex="1" parent="1">
          <mxGeometry x="-400" y="170" width="80" height="80" as="geometry" />
        </mxCell>
        <mxCell id="LmSZ4bQ_DX0vWLkFpmX3-87" style="edgeStyle=orthogonalEdgeStyle;rounded=0;orthogonalLoop=1;jettySize=auto;html=1;entryX=0.368;entryY=0;entryDx=0;entryDy=0;entryPerimeter=0;" edge="1" parent="1" source="LmSZ4bQ_DX0vWLkFpmX3-30" target="LmSZ4bQ_DX0vWLkFpmX3-74">
          <mxGeometry relative="1" as="geometry" />
        </mxCell>
        <mxCell id="LmSZ4bQ_DX0vWLkFpmX3-93" style="edgeStyle=orthogonalEdgeStyle;rounded=0;orthogonalLoop=1;jettySize=auto;html=1;exitX=1;exitY=0.5;exitDx=0;exitDy=0;entryX=0.5;entryY=1;entryDx=0;entryDy=0;entryPerimeter=0;" edge="1" parent="1" source="LmSZ4bQ_DX0vWLkFpmX3-88" target="LmSZ4bQ_DX0vWLkFpmX3-90">
          <mxGeometry relative="1" as="geometry" />
        </mxCell>
        <mxCell id="LmSZ4bQ_DX0vWLkFpmX3-94" style="edgeStyle=orthogonalEdgeStyle;rounded=0;orthogonalLoop=1;jettySize=auto;html=1;entryX=0.5;entryY=0;entryDx=0;entryDy=0;" edge="1" parent="1" source="LmSZ4bQ_DX0vWLkFpmX3-88" target="LmSZ4bQ_DX0vWLkFpmX3-89">
          <mxGeometry relative="1" as="geometry" />
        </mxCell>
        <mxCell id="LmSZ4bQ_DX0vWLkFpmX3-88" value="Info retriever" style="whiteSpace=wrap;html=1;aspect=fixed;" vertex="1" parent="1">
          <mxGeometry x="-400" y="350" width="80" height="80" as="geometry" />
        </mxCell>
        <mxCell id="LmSZ4bQ_DX0vWLkFpmX3-95" style="edgeStyle=orthogonalEdgeStyle;rounded=0;orthogonalLoop=1;jettySize=auto;html=1;entryX=1;entryY=0.558;entryDx=0;entryDy=0;entryPerimeter=0;" edge="1" parent="1" source="LmSZ4bQ_DX0vWLkFpmX3-89" target="LmSZ4bQ_DX0vWLkFpmX3-25">
          <mxGeometry relative="1" as="geometry" />
        </mxCell>
        <mxCell id="LmSZ4bQ_DX0vWLkFpmX3-89" value="Answer former" style="whiteSpace=wrap;html=1;aspect=fixed;" vertex="1" parent="1">
          <mxGeometry x="-400" y="500" width="80" height="80" as="geometry" />
        </mxCell>
        <mxCell id="LmSZ4bQ_DX0vWLkFpmX3-91" value="" style="group" vertex="1" connectable="0" parent="1">
          <mxGeometry x="-230" y="-120" width="330" height="320" as="geometry" />
        </mxCell>
        <mxCell id="LmSZ4bQ_DX0vWLkFpmX3-15" value="" style="group" vertex="1" connectable="0" parent="LmSZ4bQ_DX0vWLkFpmX3-91">
          <mxGeometry width="330" height="320" as="geometry" />
        </mxCell>
        <mxCell id="LmSZ4bQ_DX0vWLkFpmX3-90" value="" style="shape=cylinder3;whiteSpace=wrap;html=1;boundedLbl=1;backgroundOutline=1;size=15;" vertex="1" parent="LmSZ4bQ_DX0vWLkFpmX3-15">
          <mxGeometry x="10" y="-30" width="290" height="327.86" as="geometry" />
        </mxCell>
        <mxCell id="LmSZ4bQ_DX0vWLkFpmX3-7" value="Stores" style="text;html=1;align=center;verticalAlign=middle;resizable=0;points=[];autosize=1;strokeColor=none;fillColor=none;container=0;" vertex="1" parent="LmSZ4bQ_DX0vWLkFpmX3-15">
          <mxGeometry x="4.230769230769231" width="60" height="30" as="geometry" />
        </mxCell>
        <mxCell id="LmSZ4bQ_DX0vWLkFpmX3-54" value="Form store" style="whiteSpace=wrap;html=1;aspect=fixed;" vertex="1" parent="LmSZ4bQ_DX0vWLkFpmX3-15">
          <mxGeometry x="25.384615384615383" y="213.33333333333331" width="67.6923076923077" height="67.6923076923077" as="geometry" />
        </mxCell>
        <mxCell id="LmSZ4bQ_DX0vWLkFpmX3-86" value="Template store" style="whiteSpace=wrap;html=1;aspect=fixed;" vertex="1" parent="LmSZ4bQ_DX0vWLkFpmX3-15">
          <mxGeometry x="25.384615384615383" y="124.44444444444444" width="67.6923076923077" height="67.6923076923077" as="geometry" />
        </mxCell>
        <mxCell id="LmSZ4bQ_DX0vWLkFpmX3-97" value="Info&lt;br&gt;store" style="whiteSpace=wrap;html=1;aspect=fixed;" vertex="1" parent="LmSZ4bQ_DX0vWLkFpmX3-15">
          <mxGeometry x="25.38153846153847" y="29.995555555555555" width="67.6923076923077" height="67.6923076923077" as="geometry" />
        </mxCell>
        <mxCell id="LmSZ4bQ_DX0vWLkFpmX3-8" value="Resume store" style="whiteSpace=wrap;html=1;aspect=fixed;" vertex="1" parent="LmSZ4bQ_DX0vWLkFpmX3-91">
          <mxGeometry x="118.46153846153847" y="35.55555555555556" width="67.6923076923077" height="67.6923076923077" as="geometry" />
        </mxCell>
        <mxCell id="LmSZ4bQ_DX0vWLkFpmX3-9" value="Past application store" style="whiteSpace=wrap;html=1;aspect=fixed;" vertex="1" parent="LmSZ4bQ_DX0vWLkFpmX3-91">
          <mxGeometry x="211.53846153846155" y="35.55555555555556" width="67.6923076923077" height="67.6923076923077" as="geometry" />
        </mxCell>
        <mxCell id="LmSZ4bQ_DX0vWLkFpmX3-10" value="Cover letter store" style="whiteSpace=wrap;html=1;aspect=fixed;" vertex="1" parent="LmSZ4bQ_DX0vWLkFpmX3-91">
          <mxGeometry x="118.46153846153847" y="124.44444444444444" width="67.6923076923077" height="67.6923076923077" as="geometry" />
        </mxCell>
        <mxCell id="LmSZ4bQ_DX0vWLkFpmX3-11" value="Certificate&lt;br&gt;store" style="whiteSpace=wrap;html=1;aspect=fixed;" vertex="1" parent="LmSZ4bQ_DX0vWLkFpmX3-91">
          <mxGeometry x="211.53846153846155" y="124.44444444444444" width="67.6923076923077" height="67.6923076923077" as="geometry" />
        </mxCell>
        <mxCell id="LmSZ4bQ_DX0vWLkFpmX3-13" value="ID store" style="whiteSpace=wrap;html=1;aspect=fixed;" vertex="1" parent="LmSZ4bQ_DX0vWLkFpmX3-91">
          <mxGeometry x="118.46153846153847" y="213.33333333333331" width="67.6923076923077" height="67.6923076923077" as="geometry" />
        </mxCell>
        <mxCell id="LmSZ4bQ_DX0vWLkFpmX3-14" value="Image store" style="whiteSpace=wrap;html=1;aspect=fixed;" vertex="1" parent="LmSZ4bQ_DX0vWLkFpmX3-91">
          <mxGeometry x="211.53846153846155" y="213.33333333333331" width="67.6923076923077" height="67.6923076923077" as="geometry" />
        </mxCell>
        <mxCell id="LmSZ4bQ_DX0vWLkFpmX3-96" style="edgeStyle=orthogonalEdgeStyle;rounded=0;orthogonalLoop=1;jettySize=auto;html=1;entryX=0.368;entryY=0.991;entryDx=0;entryDy=0;entryPerimeter=0;" edge="1" parent="1" source="LmSZ4bQ_DX0vWLkFpmX3-25" target="LmSZ4bQ_DX0vWLkFpmX3-74">
          <mxGeometry relative="1" as="geometry" />
        </mxCell>
        <mxCell id="LmSZ4bQ_DX0vWLkFpmX3-100" value="&lt;font style=&quot;font-size: 36px;&quot;&gt;HLD&lt;/font&gt;" style="text;html=1;align=center;verticalAlign=middle;resizable=0;points=[];autosize=1;strokeColor=none;fillColor=none;" vertex="1" parent="1">
          <mxGeometry x="-420" y="-325" width="100" height="60" as="geometry" />
        </mxCell>
        <mxCell id="LmSZ4bQ_DX0vWLkFpmX3-103" style="edgeStyle=orthogonalEdgeStyle;rounded=0;orthogonalLoop=1;jettySize=auto;html=1;entryX=0.5;entryY=0;entryDx=0;entryDy=0;" edge="1" parent="1" source="LmSZ4bQ_DX0vWLkFpmX3-101" target="LmSZ4bQ_DX0vWLkFpmX3-105">
          <mxGeometry relative="1" as="geometry">
            <mxPoint x="780" y="-20" as="targetPoint" />
          </mxGeometry>
        </mxCell>
        <mxCell id="LmSZ4bQ_DX0vWLkFpmX3-101" value="Start" style="strokeWidth=2;html=1;shape=mxgraph.flowchart.start_1;whiteSpace=wrap;" vertex="1" parent="1">
          <mxGeometry x="710" y="-150" width="140" height="60" as="geometry" />
        </mxCell>
        <mxCell id="LmSZ4bQ_DX0vWLkFpmX3-108" style="edgeStyle=orthogonalEdgeStyle;rounded=0;orthogonalLoop=1;jettySize=auto;html=1;entryX=1;entryY=0.5;entryDx=0;entryDy=0;entryPerimeter=0;" edge="1" parent="1" source="LmSZ4bQ_DX0vWLkFpmX3-102" target="LmSZ4bQ_DX0vWLkFpmX3-112">
          <mxGeometry relative="1" as="geometry">
            <mxPoint x="850" y="215" as="targetPoint" />
          </mxGeometry>
        </mxCell>
        <mxCell id="LmSZ4bQ_DX0vWLkFpmX3-102" value="Resume data" style="shape=parallelogram;html=1;strokeWidth=2;perimeter=parallelogramPerimeter;whiteSpace=wrap;rounded=1;arcSize=12;size=0.23;" vertex="1" parent="1">
          <mxGeometry x="910" y="135" width="180" height="60" as="geometry" />
        </mxCell>
        <mxCell id="LmSZ4bQ_DX0vWLkFpmX3-107" style="edgeStyle=orthogonalEdgeStyle;rounded=0;orthogonalLoop=1;jettySize=auto;html=1;entryX=0.492;entryY=-0.028;entryDx=0;entryDy=0;entryPerimeter=0;" edge="1" parent="1" source="LmSZ4bQ_DX0vWLkFpmX3-105" target="LmSZ4bQ_DX0vWLkFpmX3-112">
          <mxGeometry relative="1" as="geometry">
            <mxPoint x="780" y="140" as="targetPoint" />
          </mxGeometry>
        </mxCell>
        <mxCell id="LmSZ4bQ_DX0vWLkFpmX3-105" value="User input: Type of reply, Job description &amp;amp; output template,&lt;br&gt;Additional information" style="rounded=0;whiteSpace=wrap;html=1;" vertex="1" parent="1">
          <mxGeometry x="720" y="-10" width="120" height="60" as="geometry" />
        </mxCell>
        <mxCell id="LmSZ4bQ_DX0vWLkFpmX3-115" style="edgeStyle=orthogonalEdgeStyle;rounded=0;orthogonalLoop=1;jettySize=auto;html=1;entryX=0.5;entryY=0;entryDx=0;entryDy=0;" edge="1" parent="1" source="LmSZ4bQ_DX0vWLkFpmX3-112" target="LmSZ4bQ_DX0vWLkFpmX3-114">
          <mxGeometry relative="1" as="geometry" />
        </mxCell>
        <mxCell id="LmSZ4bQ_DX0vWLkFpmX3-112" value="Form followback questions" style="rhombus;whiteSpace=wrap;html=1;" vertex="1" parent="1">
          <mxGeometry x="725" y="110" width="110" height="110" as="geometry" />
        </mxCell>
        <mxCell id="LmSZ4bQ_DX0vWLkFpmX3-116" style="edgeStyle=orthogonalEdgeStyle;rounded=0;orthogonalLoop=1;jettySize=auto;html=1;entryX=1;entryY=0.5;entryDx=0;entryDy=0;" edge="1" parent="1" source="LmSZ4bQ_DX0vWLkFpmX3-113" target="LmSZ4bQ_DX0vWLkFpmX3-114">
          <mxGeometry relative="1" as="geometry" />
        </mxCell>
        <mxCell id="LmSZ4bQ_DX0vWLkFpmX3-113" value="Info&lt;br&gt;store" style="strokeWidth=2;html=1;shape=mxgraph.flowchart.database;whiteSpace=wrap;" vertex="1" parent="1">
          <mxGeometry x="1000" y="301.5" width="60" height="77" as="geometry" />
        </mxCell>
        <mxCell id="LmSZ4bQ_DX0vWLkFpmX3-118" style="edgeStyle=orthogonalEdgeStyle;rounded=0;orthogonalLoop=1;jettySize=auto;html=1;entryX=0.5;entryY=0;entryDx=0;entryDy=0;" edge="1" parent="1" source="LmSZ4bQ_DX0vWLkFpmX3-114" target="LmSZ4bQ_DX0vWLkFpmX3-117">
          <mxGeometry relative="1" as="geometry" />
        </mxCell>
        <mxCell id="LmSZ4bQ_DX0vWLkFpmX3-114" value="Search answers followback questions" style="rhombus;whiteSpace=wrap;html=1;" vertex="1" parent="1">
          <mxGeometry x="720" y="280" width="120" height="120" as="geometry" />
        </mxCell>
        <mxCell id="LmSZ4bQ_DX0vWLkFpmX3-117" value="Output: Output with&amp;nbsp; filled template and followback questions that couldn&#39;t be filled." style="rounded=0;whiteSpace=wrap;html=1;" vertex="1" parent="1">
          <mxGeometry x="720" y="460" width="120" height="60" as="geometry" />
        </mxCell>
        <mxCell id="LmSZ4bQ_DX0vWLkFpmX3-119" value="&lt;font style=&quot;font-size: 36px;&quot;&gt;Custom reply generation&lt;/font&gt;" style="text;html=1;align=center;verticalAlign=middle;resizable=0;points=[];autosize=1;strokeColor=none;fillColor=none;" vertex="1" parent="1">
          <mxGeometry x="590" y="-325" width="420" height="60" as="geometry" />
        </mxCell>
      </root>
    </mxGraphModel>
  </diagram>
</mxfile>
